<?xml version="1.0" standalone="no"?><!DOCTYPE svg PUBLIC "-//W3C//DTD SVG 1.1//EN" "http://www.w3.org/Graphics/SVG/1.1/DTD/svg11.dtd"><svg t="1639473653324" class="icon" viewBox="0 0 1024 1024" version="1.1" xmlns="http://www.w3.org/2000/svg" p-id="8438" xmlns:xlink="http://www.w3.org/1999/xlink" width="200" height="200"><defs><style type="text/css"></style></defs><path d="M889.49987 522.622526c0 40.008988-34.91165 72.783441-77.63103 72.78344H199.406238c-42.698909 0-77.63103-32.753981-77.63103-72.78344v-397.838046c0-40.033554 34.932121-72.791629 77.63103-72.791629h612.454414c42.71938 0 77.63103 32.758076 77.63103 72.791629v397.838046h0.008188zM953.955611 773.960201v186.321023h-896.640238v-186.321023l48.058279-69.864242h795.721127z" fill="#F0F0FF" p-id="8439"></path><path d="M163.593854 806.562695h311.334781v40.942477H163.593854z" fill="#6E6E96" p-id="8440"></path><path d="M221.08528 155.573223h569.100425v339.822556h-569.100425z" fill="#9AC8E3" p-id="8441"></path><path d="M811.86884 587.221565H199.406238c-54.0932 0-98.102268-41.835023-98.102268-93.254679h40.942477c0 28.848069 25.642273 52.312202 57.159791 52.312203h612.462602c31.517519 0 57.159792-23.464133 57.159792-52.312203l40.934288-0.004094c0.004094 25.073173-10.383012 48.631474-29.257494 66.330906-18.510094 17.363704-42.960941 26.927867-68.836586 26.927867z" fill="#6E6E96" opacity=".15" p-id="8442"></path><path d="M352.101205 595.414155h323.445565v108.685898h-323.445565z" fill="#F0F0FF" p-id="8443"></path><path d="M675.54677 724.567197h-323.445565a20.471238 20.471238 0 0 1-20.471239-20.471238v-108.685899a20.471238 20.471238 0 0 1 20.471239-20.471238h323.445565a20.471238 20.471238 0 0 1 20.471238 20.471238v108.685899a20.471238 20.471238 0 0 1-20.471238 20.471238z m-302.974327-40.942476h282.503089v-67.743422h-282.503089v67.743422z" fill="#6E6E96" p-id="8444"></path><path d="M673.266274 155.573223H221.08528v339.822556h112.362532z" fill="#BDF3FF" opacity=".58" p-id="8445"></path><path d="M542.250349 155.573223H221.08528v321.169163z" fill="#FFFFFF" opacity=".33" p-id="8446"></path><path d="M381.211306 155.573223h-160.126026v160.13012z" fill="#FFFFFF" opacity=".61" p-id="8447"></path><path d="M221.08528 171.950213h569.100425v40.942477h-569.100425z" fill="#6E6E96" opacity=".15" p-id="8448"></path><path d="M221.08528 176.044461h569.100425a20.471238 20.471238 0 0 1-20.471239-20.471238v339.822556a20.471238 20.471238 0 0 1 20.471239-20.471239h-569.100425a20.471238 20.471238 0 0 1 20.471238 20.471239v-339.822556a20.471238 20.471238 0 0 1-20.471238 20.471238z m0 339.822556h569.100425a20.471238 20.471238 0 0 0 20.471238-20.471238v-339.822556a20.471238 20.471238 0 0 0-20.471238-20.471239h-569.100425a20.471238 20.471238 0 0 0-20.471239 20.471239v339.822556a20.471238 20.471238 0 0 0 20.471239 20.471238zM808.826814 806.562695h46.400109v40.942477h-46.400109z" fill="#6E6E96" p-id="8449"></path><path d="M57.315373 773.960201h896.640238l-52.860832-69.864242H105.373652z" fill="#FFFFFF" opacity=".67" p-id="8450"></path><path d="M933.484373 773.960201v186.321023a20.471238 20.471238 0 0 1 20.471238-20.471239h-896.640238a20.471238 20.471238 0 0 1 20.471238 20.471239v-186.321023c0 4.143379-1.256934 8.188495-3.602938 11.603098l48.058279-69.856054a20.520369 20.520369 0 0 1-16.8683 8.868141h795.721127a20.454861 20.454861 0 0 1-16.315576-8.118893l52.860831 69.856053a20.409825 20.409825 0 0 1-4.155661-12.352345z m-32.389594-90.33548H105.373652a20.487615 20.487615 0 0 0-16.8683 8.864046L40.447073 762.357103a20.553123 20.553123 0 0 0-3.602938 11.603098v186.321023c0 11.316501 9.167021 20.471238 20.471238 20.471238h896.640238c11.308312 0 20.471238-9.154738 20.471238-20.471238v-186.321023a20.446673 20.446673 0 0 0-4.147473-12.352345l-52.860831-69.860148a20.471238 20.471238 0 0 0-16.323766-8.122987z" fill="#6E6E96" p-id="8451"></path><path d="M557.718417 595.414155h120.096566v109.697177H557.718417z" fill="#6E6E96" opacity=".15" p-id="8452"></path><path d="M179.090581 584.470231h-40.942476V163.765812c0-88.755101 37.278125-93.258773 98.102268-93.258773h644.283095v40.942477H236.250373c-19.861195 0-40.402036 0-47.730739 5.506763-6.25601 4.700196-9.429052 20.450767-9.429053 46.813627v420.700325z" fill="#FFFFFF" opacity=".64" p-id="8453"></path><path d="M869.028632 522.622526c0 28.848069-25.642273 52.312202-57.159792 52.312202H199.406238c-31.517519 0-57.159792-23.464133-57.159791-52.312202v-397.838046c0-28.848069 25.642273-52.320391 57.159791-52.320391h612.454414c31.517519 0 57.159792 23.472322 57.159791 52.320391v397.838046a20.471238 20.471238 0 1 0 0.008189 0z m40.934288 0v-397.838046c0-51.431939-44.009068-93.262867-98.102268-93.262867H199.406238c-54.0932 0-98.102268 41.839117-98.102268 93.262867v397.838046c0 51.423751 44.009068 93.254679 98.102268 93.254679h612.462602c54.0932 0 98.102268-41.843211 98.102268-93.254679a20.46305 20.46305 0 1 0-0.008188 0z" fill="#6E6E96" p-id="8454"></path><path d="M63.677834 898.900263h888.447648v40.942476H63.677834z" fill="#6E6E96" opacity=".15" p-id="8455"></path></svg>