<svg xmlns="http://www.w3.org/2000/svg" width="24" height="24" viewBox="0 0 24 24">
  <g id="ic-蓝色电脑" transform="translate(-6036 -2176)">
    <path id="路径_61" data-name="路径 61" d="M0,0H24V24H0Z" transform="translate(6036 2176)" fill="none"/>
    <path id="路径_60" data-name="路径 60" d="M1.6,0H18.4A1.6,1.6,0,0,1,20,1.6V12.4A1.6,1.6,0,0,1,18.4,14H1.6A1.6,1.6,0,0,1,0,12.4V1.6A1.6,1.6,0,0,1,1.6,0Z" transform="translate(6038 2180)" fill="#7a8dad"/>
    <path id="路径_48" data-name="路径 48" d="M-.5-.5h6L8,2H-3Z" transform="translate(6045.5 2195)" fill="#4a6490"/>
    <g id="组_52" data-name="组 52" transform="translate(0.4 0.4)">
      <path id="路径_62" data-name="路径 62" d="M.5,0H16.7a.5.5,0,0,1,.5.5V10.7a.5.5,0,0,1-.5.5H.5a.5.5,0,0,1-.5-.5V.5A.5.5,0,0,1,.5,0Z" transform="translate(6039 2181)" fill="#53aef0"/>
      <path id="路径_49" data-name="路径 49" d="M.478,0H16.722A.472.472,0,0,1,17.2.467V10.733a.472.472,0,0,1-.478.467C10.733,10.283,3.889,5.27,0,.467A.472.472,0,0,1,.478,0Z" transform="translate(6039 2181)" fill="#fff" opacity="0.24"/>
    </g>
  </g>
</svg>
