<svg xmlns="http://www.w3.org/2000/svg" width="18" height="18" viewBox="0 0 18 18">
  <g id="组_71" data-name="组 71" transform="translate(-288.253 -411.955)">
    <circle id="椭圆_13" data-name="椭圆 13" cx="9" cy="9" r="9" transform="translate(288.253 411.955)" fill="#ed4646"/>
    <path id="路径_69" data-name="路径 69" d="M-1197.248,83.454a.5.5,0,0,1-.5-.5.5.5,0,0,1,.5-.5h2v-3.5a2.5,2.5,0,0,1,2.5-2.5,2.5,2.5,0,0,1,2.5,2.5v3.5h2.25a.5.5,0,0,1,.5.5.5.5,0,0,1-.5.5Z" transform="translate(1489.902 342)" fill="#fff" stroke="rgba(0,0,0,0)" stroke-width="1"/>
    <path id="路径_64" data-name="路径 64" d="M297.155,417.2a.5.5,0,0,1-.5-.5v-.75a.5.5,0,0,1,1,0v.75A.5.5,0,0,1,297.155,417.2Z" fill="#fff"/>
    <path id="路径_65" data-name="路径 65" d="M299.646,418.111a.5.5,0,0,1-.382-.821l.481-.575a.5.5,0,1,1,.766.643l-.482.575A.5.5,0,0,1,299.646,418.111Z" fill="#fff"/>
    <path id="路径_66" data-name="路径 66" d="M300.967,420.407a.5.5,0,0,1-.086-.992l.739-.131a.5.5,0,0,1,.174.985l-.739.13A.533.533,0,0,1,300.967,420.407Z" fill="#fff"/>
    <path id="路径_67" data-name="路径 67" d="M293.339,420.407a.521.521,0,0,1-.087-.008l-.739-.13a.5.5,0,0,1,.174-.985l.739.131a.5.5,0,0,1-.087.992Z" fill="#fff"/>
    <path id="路径_68" data-name="路径 68" d="M294.665,418.111a.5.5,0,0,1-.384-.178l-.482-.575a.5.5,0,1,1,.766-.643l.482.575a.5.5,0,0,1-.382.821Z" fill="#fff"/>
  </g>
</svg>
