<svg xmlns="http://www.w3.org/2000/svg" width="18" height="18" viewBox="0 0 18 18">
  <g id="组_73" data-name="组 73" transform="translate(-292.661 -393.331)">
    <circle id="椭圆_11" data-name="椭圆 11" cx="9" cy="9" r="9" transform="translate(292.661 393.331)" fill="#71d48c"/>
    <rect id="矩形_136" data-name="矩形 136" width="12" height="12" transform="translate(295.661 396.331)" fill="none"/>
    <path id="路径_71" data-name="路径 71" d="M304.161,407.331h-5a2,2,0,0,1-2-2v-2.5a2,2,0,0,1,2-2h5a2,2,0,0,1,2,2v2.5A2,2,0,0,1,304.161,407.331Zm-2.5-4.5a.5.5,0,0,0-.5.5v1.5a.5.5,0,0,0,1,0v-1.5A.5.5,0,0,0,301.661,402.831Z" fill="#fff"/>
    <path id="路径_72" data-name="路径 72" d="M304.161,402.331a.5.5,0,0,1-.5-.5v-2a2,2,0,1,0-4,0v2a.5.5,0,0,1-1,0v-2a3,3,0,1,1,6,0v2A.5.5,0,0,1,304.161,402.331Z" fill="#fff"/>
  </g>
</svg>
